<svg xmlns="http://www.w3.org/2000/svg" xmlns:xlink="http://www.w3.org/1999/xlink" contentStyleType="text/css" data-diagram-type="CLASS" height="715px" preserveAspectRatio="none" style="width:2459px;height:715px;background:#FFFFFF;" version="1.1" viewBox="0 0 2459 715" width="2459px" zoomAndPan="magnify"><title>[DETALLADO 1/3] Modelo de Entidades, Repositorios y DTOs</title><defs/><g><g class="title" data-source-line="2"><text fill="#000000" font-family="sans-serif" font-size="14" font-weight="bold" lengthAdjust="spacing" textLength="409.1514" x="1017.9243" y="25.1074">[DETALLADO 1/3] Modelo de Entidades, Repositorios y DTOs</text></g><!--cluster Entidades de Persistencia--><g class="cluster" data-entity="Entidades de Persistencia" data-source-line="4" data-uid="ent0002" id="cluster_Entidades de Persistencia"><path d="M8.5,196.1348 L183.0166,196.1348 A3.75,3.75 0 0 1 185.5166,198.6348 L192.5166,220.7559 L719.5,220.7559 A2.5,2.5 0 0 1 722,223.2559 L722,706.1348 A2.5,2.5 0 0 1 719.5,708.6348 L8.5,708.6348 A2.5,2.5 0 0 1 6,706.1348 L6,198.6348 A2.5,2.5 0 0 1 8.5,196.1348" fill="none" style="stroke:#000000;stroke-width:1.5;"/><line style="stroke:#000000;stroke-width:1.5;" x1="6" x2="192.5166" y1="220.7559" y2="220.7559"/><text fill="#000000" font-family="sans-serif" font-size="14" font-weight="bold" lengthAdjust="spacing" textLength="173.5166" x="10" y="213.2422">Entidades de Persistencia</text></g><!--cluster Repositorios (Spring Data JPA)--><g class="cluster" data-entity="Repositorios .Spring Data JPA." data-source-line="53" data-uid="ent0009" id="cluster_Repositorios .Spring Data JPA."><path d="M748.5,45.6348 L957.9688,45.6348 A3.75,3.75 0 0 1 960.4688,48.1348 L967.4688,70.2559 L2449.5,70.2559 A2.5,2.5 0 0 1 2452,72.7559 L2452,678.1348 A2.5,2.5 0 0 1 2449.5,680.6348 L748.5,680.6348 A2.5,2.5 0 0 1 746,678.1348 L746,48.1348 A2.5,2.5 0 0 1 748.5,45.6348" fill="none" style="stroke:#000000;stroke-width:1.5;"/><line style="stroke:#000000;stroke-width:1.5;" x1="746" x2="967.4688" y1="70.2559" y2="70.2559"/><text fill="#000000" font-family="sans-serif" font-size="14" font-weight="bold" lengthAdjust="spacing" textLength="208.4688" x="750" y="62.7422">Repositorios (Spring Data JPA)</text></g><!--cluster org--><g class="cluster" data-entity="org" data-source-line="75" data-uid="ent0016" id="cluster_org"><path d="M1239.5,90.6348 L1263.0518,90.6348 A3.75,3.75 0 0 1 1265.5518,93.1348 L1272.5518,115.2559 L1580.5,115.2559 A2.5,2.5 0 0 1 1583,117.7559 L1583,465.1348 A2.5,2.5 0 0 1 1580.5,467.6348 L1239.5,467.6348 A2.5,2.5 0 0 1 1237,465.1348 L1237,93.1348 A2.5,2.5 0 0 1 1239.5,90.6348" fill="none" style="stroke:#000000;stroke-width:1.5;"/><line style="stroke:#000000;stroke-width:1.5;" x1="1237" x2="1272.5518" y1="115.2559" y2="115.2559"/><text fill="#000000" font-family="sans-serif" font-size="14" font-weight="bold" lengthAdjust="spacing" textLength="22.5518" x="1241" y="107.7422">org</text></g><!--cluster springframework--><g class="cluster" data-entity="springframework" data-source-line="75" data-uid="ent0017" id="cluster_springframework"><path d="M1263.5,135.6348 L1378.0859,135.6348 A3.75,3.75 0 0 1 1380.5859,138.1348 L1387.5859,160.2559 L1556.5,160.2559 A2.5,2.5 0 0 1 1559,162.7559 L1559,441.1348 A2.5,2.5 0 0 1 1556.5,443.6348 L1263.5,443.6348 A2.5,2.5 0 0 1 1261,441.1348 L1261,138.1348 A2.5,2.5 0 0 1 1263.5,135.6348" fill="none" style="stroke:#000000;stroke-width:1.5;"/><line style="stroke:#000000;stroke-width:1.5;" x1="1261" x2="1387.5859" y1="160.2559" y2="160.2559"/><text fill="#000000" font-family="sans-serif" font-size="14" font-weight="bold" lengthAdjust="spacing" textLength="113.5859" x="1265" y="152.7422">springframework</text></g><!--cluster data--><g class="cluster" data-entity="data" data-source-line="75" data-uid="ent0018" id="cluster_data"><path d="M1287.5,180.6348 L1317.2861,180.6348 A3.75,3.75 0 0 1 1319.7861,183.1348 L1326.7861,205.2559 L1532.5,205.2559 A2.5,2.5 0 0 1 1535,207.7559 L1535,417.1348 A2.5,2.5 0 0 1 1532.5,419.6348 L1287.5,419.6348 A2.5,2.5 0 0 1 1285,417.1348 L1285,183.1348 A2.5,2.5 0 0 1 1287.5,180.6348" fill="none" style="stroke:#000000;stroke-width:1.5;"/><line style="stroke:#000000;stroke-width:1.5;" x1="1285" x2="1326.7861" y1="205.2559" y2="205.2559"/><text fill="#000000" font-family="sans-serif" font-size="14" font-weight="bold" lengthAdjust="spacing" textLength="28.7861" x="1289" y="197.7422">data</text></g><!--cluster jpa--><g class="cluster" data-entity="jpa" data-source-line="75" data-uid="ent0019" id="cluster_jpa"><path d="M1311.5,225.6348 L1332.7275,225.6348 A3.75,3.75 0 0 1 1335.2275,228.1348 L1342.2275,250.2559 L1508.5,250.2559 A2.5,2.5 0 0 1 1511,252.7559 L1511,393.1348 A2.5,2.5 0 0 1 1508.5,395.6348 L1311.5,395.6348 A2.5,2.5 0 0 1 1309,393.1348 L1309,228.1348 A2.5,2.5 0 0 1 1311.5,225.6348" fill="none" style="stroke:#000000;stroke-width:1.5;"/><line style="stroke:#000000;stroke-width:1.5;" x1="1309" x2="1342.2275" y1="250.2559" y2="250.2559"/><text fill="#000000" font-family="sans-serif" font-size="14" font-weight="bold" lengthAdjust="spacing" textLength="20.2275" x="1313" y="242.7422">jpa</text></g><!--cluster repository--><g class="cluster" data-entity="repository" data-source-line="75" data-uid="ent0020" id="cluster_repository"><path d="M1335.5,270.6348 L1404.9619,270.6348 A3.75,3.75 0 0 1 1407.4619,273.1348 L1414.4619,295.2559 L1484.5,295.2559 A2.5,2.5 0 0 1 1487,297.7559 L1487,369.1348 A2.5,2.5 0 0 1 1484.5,371.6348 L1335.5,371.6348 A2.5,2.5 0 0 1 1333,369.1348 L1333,273.1348 A2.5,2.5 0 0 1 1335.5,270.6348" fill="none" style="stroke:#000000;stroke-width:1.5;"/><line style="stroke:#000000;stroke-width:1.5;" x1="1333" x2="1414.4619" y1="295.2559" y2="295.2559"/><text fill="#000000" font-family="sans-serif" font-size="14" font-weight="bold" lengthAdjust="spacing" textLength="68.4619" x="1337" y="287.7422">repository</text></g><!--class Empleado--><g class="entity" data-entity="Empleado" data-source-line="5" data-uid="ent0003" id="entity_Empleado"><rect fill="#F1F1F1" height="196.9688" rx="2.5" ry="2.5" style="stroke:#181818;stroke-width:0.5;" width="214.3164" x="423" y="233.1348"/><ellipse cx="494.3877" cy="249.1348" fill="#ADD1B2" rx="11" ry="11" style="stroke:#181818;stroke-width:1;"/><path d="M497.1533,245.0098 Q497.3096,244.791 497.4971,244.6816 Q497.6846,244.5723 497.9033,244.5723 Q498.2783,244.5723 498.5127,244.8379 Q498.7471,245.0879 498.7471,245.6973 L498.7471,247.1504 Q498.7471,247.7598 498.5127,248.0254 Q498.2783,248.291 497.9033,248.291 Q497.5596,248.291 497.3564,248.0879 Q497.1533,247.9004 497.0439,247.3848 Q496.9971,247.0254 496.8096,246.8379 Q496.4814,246.4629 495.8721,246.2441 Q495.2627,246.0254 494.6377,246.0254 Q493.8721,246.0254 493.2314,246.3535 Q492.6064,246.6816 492.1064,247.4316 Q491.6221,248.1816 491.6221,249.2129 L491.6221,250.3066 Q491.6221,251.541 492.5127,252.3691 Q493.4033,253.1816 494.9971,253.1816 Q495.9346,253.1816 496.5908,252.9316 Q496.9814,252.7754 497.4033,252.3379 Q497.6689,252.0723 497.8096,251.9941 Q497.9658,251.916 498.1689,251.916 Q498.4971,251.916 498.7471,252.1816 Q499.0127,252.4316 499.0127,252.7754 Q499.0127,253.1191 498.6689,253.5254 Q498.1689,254.1035 497.3721,254.4316 Q496.2939,254.8848 494.9971,254.8848 Q493.4814,254.8848 492.2783,254.2598 Q491.2939,253.7598 490.6064,252.6973 Q489.9189,251.6191 489.9189,250.3379 L489.9189,249.1816 Q489.9189,247.8535 490.5283,246.7129 Q491.1533,245.5566 492.2471,244.9473 Q493.3408,244.3223 494.5752,244.3223 Q495.3096,244.3223 495.9502,244.4941 Q496.6064,244.6504 497.1533,245.0098 Z " fill="#000000"/><text fill="#000000" font-family="sans-serif" font-size="14" lengthAdjust="spacing" textLength="63.041" x="514.8877" y="254.9316">Empleado</text><line style="stroke:#181818;stroke-width:0.5;" x1="424" x2="636.3164" y1="265.1348" y2="265.1348"/><rect fill="none" height="6" style="stroke:#C82930;stroke-width:1;" width="6" x="431" y="276.9453"/><text fill="#000000" font-family="sans-serif" font-size="14" lengthAdjust="spacing" textLength="58.3721" x="443" y="284.2422">Integer id</text><rect fill="none" height="6" style="stroke:#C82930;stroke-width:1;" width="6" x="431" y="295.5664"/><text fill="#000000" font-family="sans-serif" font-size="14" lengthAdjust="spacing" textLength="87.9307" x="443" y="302.8633">String nombre</text><rect fill="none" height="6" style="stroke:#C82930;stroke-width:1;" width="6" x="431" y="314.1875"/><text fill="#000000" font-family="sans-serif" font-size="14" lengthAdjust="spacing" textLength="95.7236" x="443" y="321.4844">String apellidos</text><rect fill="none" height="6" style="stroke:#C82930;stroke-width:1;" width="6" x="431" y="332.8086"/><text fill="#000000" font-family="sans-serif" font-size="14" lengthAdjust="spacing" textLength="90.2891" x="443" y="340.1055">boolean activo</text><rect fill="none" height="6" style="stroke:#C82930;stroke-width:1;" width="6" x="431" y="351.4297"/><text fill="#000000" font-family="sans-serif" font-size="14" lengthAdjust="spacing" textLength="188.3164" x="443" y="358.7266">LocalDateTime fechaCreacion</text><rect fill="none" height="6" style="stroke:#C82930;stroke-width:1;" width="6" x="431" y="370.0508"/><text fill="#000000" font-family="sans-serif" font-size="14" lengthAdjust="spacing" textLength="131.5098" x="443" y="377.3477">List&lt;Tarjeta&gt; tarjetas</text><rect fill="none" height="6" style="stroke:#C82930;stroke-width:1;" width="6" x="431" y="388.6719"/><text fill="#000000" font-family="sans-serif" font-size="14" lengthAdjust="spacing" textLength="147.8408" x="443" y="395.9688">List&lt;Registro&gt; registros</text><rect fill="none" height="6" style="stroke:#C82930;stroke-width:1;" width="6" x="431" y="407.293"/><text fill="#000000" font-family="sans-serif" font-size="14" lengthAdjust="spacing" textLength="147.8682" x="443" y="414.5898">UsuarioApp usuarioApp</text><line style="stroke:#181818;stroke-width:0.5;" x1="424" x2="636.3164" y1="422.1035" y2="422.1035"/></g><!--class Tarjeta--><g class="entity" data-entity="Tarjeta" data-source-line="16" data-uid="ent0004" id="entity_Tarjeta"><rect fill="#F1F1F1" height="141.1055" rx="2.5" ry="2.5" style="stroke:#181818;stroke-width:0.5;" width="245.4404" x="460.5" y="542.1348"/><ellipse cx="557.1841" cy="558.1348" fill="#ADD1B2" rx="11" ry="11" style="stroke:#181818;stroke-width:1;"/><path d="M559.9497,554.0098 Q560.106,553.791 560.2935,553.6816 Q560.481,553.5723 560.6997,553.5723 Q561.0747,553.5723 561.3091,553.8379 Q561.5435,554.0879 561.5435,554.6973 L561.5435,556.1504 Q561.5435,556.7598 561.3091,557.0254 Q561.0747,557.291 560.6997,557.291 Q560.356,557.291 560.1528,557.0879 Q559.9497,556.9004 559.8403,556.3848 Q559.7935,556.0254 559.606,555.8379 Q559.2778,555.4629 558.6685,555.2441 Q558.0591,555.0254 557.4341,555.0254 Q556.6685,555.0254 556.0278,555.3535 Q555.4028,555.6816 554.9028,556.4316 Q554.4185,557.1816 554.4185,558.2129 L554.4185,559.3066 Q554.4185,560.541 555.3091,561.3691 Q556.1997,562.1816 557.7935,562.1816 Q558.731,562.1816 559.3872,561.9316 Q559.7778,561.7754 560.1997,561.3379 Q560.4653,561.0723 560.606,560.9941 Q560.7622,560.916 560.9653,560.916 Q561.2935,560.916 561.5435,561.1816 Q561.8091,561.4316 561.8091,561.7754 Q561.8091,562.1191 561.4653,562.5254 Q560.9653,563.1035 560.1685,563.4316 Q559.0903,563.8848 557.7935,563.8848 Q556.2778,563.8848 555.0747,563.2598 Q554.0903,562.7598 553.4028,561.6973 Q552.7153,560.6191 552.7153,559.3379 L552.7153,558.1816 Q552.7153,556.8535 553.3247,555.7129 Q553.9497,554.5566 555.0435,553.9473 Q556.1372,553.3223 557.3716,553.3223 Q558.106,553.3223 558.7466,553.4941 Q559.4028,553.6504 559.9497,554.0098 Z " fill="#000000"/><text fill="#000000" font-family="sans-serif" font-size="14" lengthAdjust="spacing" textLength="43.5723" x="577.6841" y="563.9316">Tarjeta</text><line style="stroke:#181818;stroke-width:0.5;" x1="461.5" x2="704.9404" y1="574.1348" y2="574.1348"/><rect fill="none" height="6" style="stroke:#C82930;stroke-width:1;" width="6" x="468.5" y="585.9453"/><text fill="#000000" font-family="sans-serif" font-size="14" lengthAdjust="spacing" textLength="58.3721" x="480.5" y="593.2422">Integer id</text><rect fill="none" height="6" style="stroke:#C82930;stroke-width:1;" width="6" x="468.5" y="604.5664"/><text fill="#000000" font-family="sans-serif" font-size="14" lengthAdjust="spacing" textLength="59.1445" x="480.5" y="611.8633">String uid</text><rect fill="none" height="6" style="stroke:#C82930;stroke-width:1;" width="6" x="468.5" y="623.1875"/><text fill="#000000" font-family="sans-serif" font-size="14" lengthAdjust="spacing" textLength="128.4199" x="480.5" y="630.4844">Empleado empleado</text><rect fill="none" height="6" style="stroke:#C82930;stroke-width:1;" width="6" x="468.5" y="641.8086"/><text fill="#000000" font-family="sans-serif" font-size="14" lengthAdjust="spacing" textLength="196.0957" x="480.5" y="649.1055">LocalDateTime fechaActivacion</text><rect fill="none" height="6" style="stroke:#C82930;stroke-width:1;" width="6" x="468.5" y="660.4297"/><text fill="#000000" font-family="sans-serif" font-size="14" lengthAdjust="spacing" textLength="219.4404" x="480.5" y="667.7266">LocalDateTime fechaDesactivacion</text><line style="stroke:#181818;stroke-width:0.5;" x1="461.5" x2="704.9404" y1="675.2402" y2="675.2402"/></g><!--class Registro--><g class="entity" data-entity="Registro" data-source-line="24" data-uid="ent0005" id="entity_Registro"><rect fill="#F1F1F1" height="141.1055" rx="2.5" ry="2.5" style="stroke:#181818;stroke-width:0.5;" width="154.4199" x="271" y="542.1348"/><ellipse cx="317.8945" cy="558.1348" fill="#ADD1B2" rx="11" ry="11" style="stroke:#181818;stroke-width:1;"/><path d="M320.6602,554.0098 Q320.8164,553.791 321.0039,553.6816 Q321.1914,553.5723 321.4102,553.5723 Q321.7852,553.5723 322.0195,553.8379 Q322.2539,554.0879 322.2539,554.6973 L322.2539,556.1504 Q322.2539,556.7598 322.0195,557.0254 Q321.7852,557.291 321.4102,557.291 Q321.0664,557.291 320.8633,557.0879 Q320.6602,556.9004 320.5508,556.3848 Q320.5039,556.0254 320.3164,555.8379 Q319.9883,555.4629 319.3789,555.2441 Q318.7695,555.0254 318.1445,555.0254 Q317.3789,555.0254 316.7383,555.3535 Q316.1133,555.6816 315.6133,556.4316 Q315.1289,557.1816 315.1289,558.2129 L315.1289,559.3066 Q315.1289,560.541 316.0195,561.3691 Q316.9102,562.1816 318.5039,562.1816 Q319.4414,562.1816 320.0977,561.9316 Q320.4883,561.7754 320.9102,561.3379 Q321.1758,561.0723 321.3164,560.9941 Q321.4727,560.916 321.6758,560.916 Q322.0039,560.916 322.2539,561.1816 Q322.5195,561.4316 322.5195,561.7754 Q322.5195,562.1191 322.1758,562.5254 Q321.6758,563.1035 320.8789,563.4316 Q319.8008,563.8848 318.5039,563.8848 Q316.9883,563.8848 315.7852,563.2598 Q314.8008,562.7598 314.1133,561.6973 Q313.4258,560.6191 313.4258,559.3379 L313.4258,558.1816 Q313.4258,556.8535 314.0352,555.7129 Q314.6602,554.5566 315.7539,553.9473 Q316.8477,553.3223 318.082,553.3223 Q318.8164,553.3223 319.457,553.4941 Q320.1133,553.6504 320.6602,554.0098 Z " fill="#000000"/><text fill="#000000" font-family="sans-serif" font-size="14" lengthAdjust="spacing" textLength="52.1309" x="338.3945" y="563.9316">Registro</text><line style="stroke:#181818;stroke-width:0.5;" x1="272" x2="424.4199" y1="574.1348" y2="574.1348"/><rect fill="none" height="6" style="stroke:#C82930;stroke-width:1;" width="6" x="279" y="585.9453"/><text fill="#000000" font-family="sans-serif" font-size="14" lengthAdjust="spacing" textLength="58.3721" x="291" y="593.2422">Integer id</text><rect fill="none" height="6" style="stroke:#C82930;stroke-width:1;" width="6" x="279" y="604.5664"/><text fill="#000000" font-family="sans-serif" font-size="14" lengthAdjust="spacing" textLength="128.4199" x="291" y="611.8633">Empleado empleado</text><rect fill="none" height="6" style="stroke:#C82930;stroke-width:1;" width="6" x="279" y="623.1875"/><text fill="#000000" font-family="sans-serif" font-size="14" lengthAdjust="spacing" textLength="101.1787" x="291" y="630.4844">LocalDate fecha</text><rect fill="none" height="6" style="stroke:#C82930;stroke-width:1;" width="6" x="279" y="641.8086"/><text fill="#000000" font-family="sans-serif" font-size="14" lengthAdjust="spacing" textLength="96.4893" x="291" y="649.1055">LocalTime hora</text><rect fill="none" height="6" style="stroke:#C82930;stroke-width:1;" width="6" x="279" y="660.4297"/><text fill="#000000" font-family="sans-serif" font-size="14" lengthAdjust="spacing" textLength="105.8271" x="291" y="667.7266">TipoRegistro tipo</text><line style="stroke:#181818;stroke-width:0.5;" x1="272" x2="424.4199" y1="675.2402" y2="675.2402"/></g><!--class TipoRegistro--><g class="entity" data-entity="TipoRegistro" data-source-line="32" data-uid="ent0006" id="entity_TipoRegistro"><rect fill="#F1F1F1" height="85.2422" rx="2.5" ry="2.5" style="stroke:#181818;stroke-width:0.5;" width="111.3652" x="276.5" y="289.1348"/><ellipse cx="291.5" cy="305.1348" fill="#EB937F" rx="11" ry="11" style="stroke:#181818;stroke-width:1;"/><path d="M290.3594,305.9316 L290.3594,308.4316 L294.6875,308.4316 L294.6875,307.5098 Q294.6875,306.9004 294.9219,306.6348 Q295.1719,306.3691 295.5469,306.3691 Q295.9219,306.3691 296.1563,306.6348 Q296.3906,306.9004 296.3906,307.5098 L296.3906,310.1348 L288.3906,310.1348 Q287.7656,310.1348 287.5,309.9004 Q287.25,309.666 287.25,309.2754 Q287.25,308.9004 287.5156,308.666 Q287.7813,308.4316 288.3906,308.4316 L288.6563,308.4316 L288.6563,301.7754 L288.3906,301.7754 Q287.7656,301.7754 287.5,301.541 Q287.25,301.3066 287.25,300.916 Q287.25,300.541 287.5,300.3066 Q287.7656,300.0723 288.3906,300.0723 L296.0156,300.0723 L296.0156,302.666 Q296.0156,303.2754 295.7813,303.541 Q295.5625,303.791 295.1719,303.791 Q294.7969,303.791 294.5625,303.541 Q294.3281,303.2754 294.3281,302.666 L294.3281,301.7754 L290.3594,301.7754 L290.3594,304.2285 L291.8438,304.2285 Q291.8438,303.5723 291.9688,303.3848 Q292.2344,302.9785 292.7031,302.9785 Q293.0781,302.9785 293.3125,303.2441 Q293.5469,303.4941 293.5469,304.1035 L293.5469,306.0723 Q293.5469,306.6191 293.4219,306.8066 Q293.1563,307.1973 292.7031,307.1973 Q292.2344,307.1973 291.9688,306.791 Q291.8438,306.6035 291.8438,305.9316 L290.3594,305.9316 Z " fill="#000000"/><text fill="#000000" font-family="sans-serif" font-size="14" lengthAdjust="spacing" textLength="79.3652" x="305.5" y="310.9316">TipoRegistro</text><line style="stroke:#181818;stroke-width:0.5;" x1="277.5" x2="386.8652" y1="321.1348" y2="321.1348"/><ellipse cx="287.5" cy="335.9453" fill="none" rx="3" ry="3" style="stroke:#038048;stroke-width:1;"/><text fill="#000000" font-family="sans-serif" font-size="14" lengthAdjust="spacing" textLength="47.4824" x="296.5" y="340.2422">entrada</text><ellipse cx="287.5" cy="354.5664" fill="none" rx="3" ry="3" style="stroke:#038048;stroke-width:1;"/><text fill="#000000" font-family="sans-serif" font-size="14" lengthAdjust="spacing" textLength="36.5791" x="296.5" y="358.8633">salida</text><line style="stroke:#181818;stroke-width:0.5;" x1="277.5" x2="386.8652" y1="366.377" y2="366.377"/></g><!--class UsuarioApp--><g class="entity" data-entity="UsuarioApp" data-source-line="37" data-uid="ent0007" id="entity_UsuarioApp"><rect fill="#F1F1F1" height="159.7266" rx="2.5" ry="2.5" style="stroke:#181818;stroke-width:0.5;" width="214.3164" x="22" y="532.6348"/><ellipse cx="88.3325" cy="548.6348" fill="#ADD1B2" rx="11" ry="11" style="stroke:#181818;stroke-width:1;"/><path d="M91.0981,544.5098 Q91.2544,544.291 91.4419,544.1816 Q91.6294,544.0723 91.8481,544.0723 Q92.2231,544.0723 92.4575,544.3379 Q92.6919,544.5879 92.6919,545.1973 L92.6919,546.6504 Q92.6919,547.2598 92.4575,547.5254 Q92.2231,547.791 91.8481,547.791 Q91.5044,547.791 91.3013,547.5879 Q91.0981,547.4004 90.9888,546.8848 Q90.9419,546.5254 90.7544,546.3379 Q90.4263,545.9629 89.8169,545.7441 Q89.2075,545.5254 88.5825,545.5254 Q87.8169,545.5254 87.1763,545.8535 Q86.5513,546.1816 86.0513,546.9316 Q85.5669,547.6816 85.5669,548.7129 L85.5669,549.8066 Q85.5669,551.041 86.4575,551.8691 Q87.3481,552.6816 88.9419,552.6816 Q89.8794,552.6816 90.5356,552.4316 Q90.9263,552.2754 91.3481,551.8379 Q91.6138,551.5723 91.7544,551.4941 Q91.9106,551.416 92.1138,551.416 Q92.4419,551.416 92.6919,551.6816 Q92.9575,551.9316 92.9575,552.2754 Q92.9575,552.6191 92.6138,553.0254 Q92.1138,553.6035 91.3169,553.9316 Q90.2388,554.3848 88.9419,554.3848 Q87.4263,554.3848 86.2231,553.7598 Q85.2388,553.2598 84.5513,552.1973 Q83.8638,551.1191 83.8638,549.8379 L83.8638,548.6816 Q83.8638,547.3535 84.4731,546.2129 Q85.0981,545.0566 86.1919,544.4473 Q87.2856,543.8223 88.52,543.8223 Q89.2544,543.8223 89.895,543.9941 Q90.5513,544.1504 91.0981,544.5098 Z " fill="#000000"/><text fill="#000000" font-family="sans-serif" font-size="14" lengthAdjust="spacing" textLength="73.1514" x="108.8325" y="554.4316">UsuarioApp</text><line style="stroke:#181818;stroke-width:0.5;" x1="23" x2="235.3164" y1="564.6348" y2="564.6348"/><rect fill="none" height="6" style="stroke:#C82930;stroke-width:1;" width="6" x="30" y="576.4453"/><text fill="#000000" font-family="sans-serif" font-size="14" lengthAdjust="spacing" textLength="58.3721" x="42" y="583.7422">Integer id</text><rect fill="none" height="6" style="stroke:#C82930;stroke-width:1;" width="6" x="30" y="595.0664"/><text fill="#000000" font-family="sans-serif" font-size="14" lengthAdjust="spacing" textLength="128.4199" x="42" y="602.3633">Empleado empleado</text><rect fill="none" height="6" style="stroke:#C82930;stroke-width:1;" width="6" x="30" y="613.6875"/><text fill="#000000" font-family="sans-serif" font-size="14" lengthAdjust="spacing" textLength="73.917" x="42" y="620.9844">String email</text><rect fill="none" height="6" style="stroke:#C82930;stroke-width:1;" width="6" x="30" y="632.3086"/><text fill="#000000" font-family="sans-serif" font-size="14" lengthAdjust="spacing" textLength="143.1992" x="42" y="639.6055">String hashContrasena</text><rect fill="none" height="6" style="stroke:#C82930;stroke-width:1;" width="6" x="30" y="650.9297"/><text fill="#000000" font-family="sans-serif" font-size="14" lengthAdjust="spacing" textLength="40.4551" x="42" y="658.2266">Rol rol</text><rect fill="none" height="6" style="stroke:#C82930;stroke-width:1;" width="6" x="30" y="669.5508"/><text fill="#000000" font-family="sans-serif" font-size="14" lengthAdjust="spacing" textLength="188.3164" x="42" y="676.8477">LocalDateTime fechaCreacion</text><line style="stroke:#181818;stroke-width:0.5;" x1="23" x2="235.3164" y1="684.3613" y2="684.3613"/></g><!--class Rol--><g class="entity" data-entity="Rol" data-source-line="46" data-uid="ent0008" id="entity_Rol"><rect fill="#F1F1F1" height="103.8633" rx="2.5" ry="2.5" style="stroke:#181818;stroke-width:0.5;" width="219.0059" x="22.5" y="279.6348"/><ellipse cx="117.2495" cy="295.6348" fill="#ADD1B2" rx="11" ry="11" style="stroke:#181818;stroke-width:1;"/><path d="M120.0151,291.5098 Q120.1714,291.291 120.3589,291.1816 Q120.5464,291.0723 120.7651,291.0723 Q121.1401,291.0723 121.3745,291.3379 Q121.6089,291.5879 121.6089,292.1973 L121.6089,293.6504 Q121.6089,294.2598 121.3745,294.5254 Q121.1401,294.791 120.7651,294.791 Q120.4214,294.791 120.2183,294.5879 Q120.0151,294.4004 119.9058,293.8848 Q119.8589,293.5254 119.6714,293.3379 Q119.3433,292.9629 118.7339,292.7441 Q118.1245,292.5254 117.4995,292.5254 Q116.7339,292.5254 116.0933,292.8535 Q115.4683,293.1816 114.9683,293.9316 Q114.4839,294.6816 114.4839,295.7129 L114.4839,296.8066 Q114.4839,298.041 115.3745,298.8691 Q116.2651,299.6816 117.8589,299.6816 Q118.7964,299.6816 119.4526,299.4316 Q119.8433,299.2754 120.2651,298.8379 Q120.5308,298.5723 120.6714,298.4941 Q120.8276,298.416 121.0308,298.416 Q121.3589,298.416 121.6089,298.6816 Q121.8745,298.9316 121.8745,299.2754 Q121.8745,299.6191 121.5308,300.0254 Q121.0308,300.6035 120.2339,300.9316 Q119.1558,301.3848 117.8589,301.3848 Q116.3433,301.3848 115.1401,300.7598 Q114.1558,300.2598 113.4683,299.1973 Q112.7808,298.1191 112.7808,296.8379 L112.7808,295.6816 Q112.7808,294.3535 113.3901,293.2129 Q114.0151,292.0566 115.1089,291.4473 Q116.2026,290.8223 117.437,290.8223 Q118.1714,290.8223 118.812,290.9941 Q119.4683,291.1504 120.0151,291.5098 Z " fill="#000000"/><text fill="#000000" font-family="sans-serif" font-size="14" lengthAdjust="spacing" textLength="21.0068" x="137.7495" y="301.4316">Rol</text><line style="stroke:#181818;stroke-width:0.5;" x1="23.5" x2="240.5059" y1="311.6348" y2="311.6348"/><rect fill="none" height="6" style="stroke:#C82930;stroke-width:1;" width="6" x="30.5" y="323.4453"/><text fill="#000000" font-family="sans-serif" font-size="14" lengthAdjust="spacing" textLength="58.3721" x="42.5" y="330.7422">Integer id</text><rect fill="none" height="6" style="stroke:#C82930;stroke-width:1;" width="6" x="30.5" y="342.0664"/><text fill="#000000" font-family="sans-serif" font-size="14" lengthAdjust="spacing" textLength="108.9375" x="42.5" y="349.3633">String nombreRol</text><rect fill="none" height="6" style="stroke:#C82930;stroke-width:1;" width="6" x="30.5" y="360.6875"/><text fill="#000000" font-family="sans-serif" font-size="14" lengthAdjust="spacing" textLength="193.0059" x="42.5" y="367.9844">List&lt;UsuarioApp&gt; usuariosApp</text><line style="stroke:#181818;stroke-width:0.5;" x1="23.5" x2="240.5059" y1="375.498" y2="375.498"/></g><!--class TarjetaRepository--><g class="entity" data-entity="TarjetaRepository" data-source-line="54" data-uid="ent0010" id="entity_TarjetaRepository"><rect fill="#F1F1F1" height="85.2422" rx="2.5" ry="2.5" style="stroke:#181818;stroke-width:0.5;" width="278.1367" x="762" y="570.1348"/><ellipse cx="841.5737" cy="586.1348" fill="#B4A7E5" rx="11" ry="11" style="stroke:#181818;stroke-width:1;"/><path d="M842.5269,582.7754 L842.5269,589.4316 L844.2456,589.4316 Q844.855,589.4316 845.1206,589.666 Q845.3862,589.9004 845.3862,590.291 Q845.3862,590.666 845.1206,590.9004 Q844.855,591.1348 844.2456,591.1348 L839.105,591.1348 Q838.4956,591.1348 838.23,590.9004 Q837.9644,590.666 837.9644,590.2754 Q837.9644,589.9004 838.23,589.666 Q838.4956,589.4316 839.105,589.4316 L840.8237,589.4316 L840.8237,582.7754 L839.105,582.7754 Q838.4956,582.7754 838.23,582.541 Q837.9644,582.3066 837.9644,581.916 Q837.9644,581.541 838.23,581.3066 Q838.4956,581.0723 839.105,581.0723 L844.2456,581.0723 Q844.855,581.0723 845.1206,581.3066 Q845.3862,581.541 845.3862,581.916 Q845.3862,582.3066 845.1206,582.541 Q844.855,582.7754 844.2456,582.7754 L842.5269,582.7754 Z " fill="#000000"/><text fill="#000000" font-family="sans-serif" font-size="14" font-style="italic" lengthAdjust="spacing" textLength="110.4893" x="862.0737" y="591.9316">TarjetaRepository</text><line style="stroke:#181818;stroke-width:0.5;" x1="763" x2="1039.1367" y1="602.1348" y2="602.1348"/><line style="stroke:#181818;stroke-width:0.5;" x1="763" x2="1039.1367" y1="610.1348" y2="610.1348"/><polygon fill="#4177AF" points="773,620.9453,769,626.9453,777,626.9453" style="stroke:#1963A0;stroke-width:1;"/><text fill="#000000" font-family="sans-serif" font-size="14" lengthAdjust="spacing" textLength="221.7715" x="782" y="629.2422">Optional&lt;Tarjeta&gt; findByUid(String)</text><polygon fill="#4177AF" points="773,639.5664,769,645.5664,777,645.5664" style="stroke:#1963A0;stroke-width:1;"/><text fill="#000000" font-family="sans-serif" font-size="14" lengthAdjust="spacing" textLength="252.1367" x="782" y="647.8633">List&lt;Tarjeta&gt; findByEmpleadoId(Integer)</text></g><!--class EmpleadoRepository--><g class="entity" data-entity="EmpleadoRepository" data-source-line="59" data-uid="ent0011" id="entity_EmpleadoRepository"><rect fill="#F1F1F1" height="48" rx="2.5" ry="2.5" style="stroke:#181818;stroke-width:0.5;" width="161.958" x="1075" y="588.6348"/><ellipse cx="1090" cy="604.6348" fill="#B4A7E5" rx="11" ry="11" style="stroke:#181818;stroke-width:1;"/><path d="M1090.9531,601.2754 L1090.9531,607.9316 L1092.6719,607.9316 Q1093.2813,607.9316 1093.5469,608.166 Q1093.8125,608.4004 1093.8125,608.791 Q1093.8125,609.166 1093.5469,609.4004 Q1093.2813,609.6348 1092.6719,609.6348 L1087.5313,609.6348 Q1086.9219,609.6348 1086.6563,609.4004 Q1086.3906,609.166 1086.3906,608.7754 Q1086.3906,608.4004 1086.6563,608.166 Q1086.9219,607.9316 1087.5313,607.9316 L1089.25,607.9316 L1089.25,601.2754 L1087.5313,601.2754 Q1086.9219,601.2754 1086.6563,601.041 Q1086.3906,600.8066 1086.3906,600.416 Q1086.3906,600.041 1086.6563,599.8066 Q1086.9219,599.5723 1087.5313,599.5723 L1092.6719,599.5723 Q1093.2813,599.5723 1093.5469,599.8066 Q1093.8125,600.041 1093.8125,600.416 Q1093.8125,600.8066 1093.5469,601.041 Q1093.2813,601.2754 1092.6719,601.2754 L1090.9531,601.2754 Z " fill="#000000"/><text fill="#000000" font-family="sans-serif" font-size="14" font-style="italic" lengthAdjust="spacing" textLength="129.958" x="1104" y="610.4316">EmpleadoRepository</text><line style="stroke:#181818;stroke-width:0.5;" x1="1076" x2="1235.958" y1="620.6348" y2="620.6348"/><line style="stroke:#181818;stroke-width:0.5;" x1="1076" x2="1235.958" y1="628.6348" y2="628.6348"/></g><!--class RolRepository--><g class="entity" data-entity="RolRepository" data-source-line="60" data-uid="ent0012" id="entity_RolRepository"><rect fill="#F1F1F1" height="66.6211" rx="2.5" ry="2.5" style="stroke:#181818;stroke-width:0.5;" width="274.999" x="1272.5" y="579.1348"/><ellipse cx="1361.7876" cy="595.1348" fill="#B4A7E5" rx="11" ry="11" style="stroke:#181818;stroke-width:1;"/><path d="M1362.7407,591.7754 L1362.7407,598.4316 L1364.4595,598.4316 Q1365.0688,598.4316 1365.3345,598.666 Q1365.6001,598.9004 1365.6001,599.291 Q1365.6001,599.666 1365.3345,599.9004 Q1365.0688,600.1348 1364.4595,600.1348 L1359.3188,600.1348 Q1358.7095,600.1348 1358.4438,599.9004 Q1358.1782,599.666 1358.1782,599.2754 Q1358.1782,598.9004 1358.4438,598.666 Q1358.7095,598.4316 1359.3188,598.4316 L1361.0376,598.4316 L1361.0376,591.7754 L1359.3188,591.7754 Q1358.7095,591.7754 1358.4438,591.541 Q1358.1782,591.3066 1358.1782,590.916 Q1358.1782,590.541 1358.4438,590.3066 Q1358.7095,590.0723 1359.3188,590.0723 L1364.4595,590.0723 Q1365.0688,590.0723 1365.3345,590.3066 Q1365.6001,590.541 1365.6001,590.916 Q1365.6001,591.3066 1365.3345,591.541 Q1365.0688,591.7754 1364.4595,591.7754 L1362.7407,591.7754 Z " fill="#000000"/><text fill="#000000" font-family="sans-serif" font-size="14" font-style="italic" lengthAdjust="spacing" textLength="87.9238" x="1382.2876" y="600.9316">RolRepository</text><line style="stroke:#181818;stroke-width:0.5;" x1="1273.5" x2="1546.499" y1="611.1348" y2="611.1348"/><line style="stroke:#181818;stroke-width:0.5;" x1="1273.5" x2="1546.499" y1="619.1348" y2="619.1348"/><polygon fill="#4177AF" points="1283.5,629.9453,1279.5,635.9453,1287.5,635.9453" style="stroke:#1963A0;stroke-width:1;"/><text fill="#000000" font-family="sans-serif" font-size="14" lengthAdjust="spacing" textLength="248.999" x="1292.5" y="638.2422">Optional&lt;Rol&gt; findByNombreRol(String)</text></g><!--class RegistroRepository--><g class="entity" data-entity="RegistroRepository" data-source-line="64" data-uid="ent0013" id="entity_RegistroRepository"><rect fill="#F1F1F1" height="103.8633" rx="2.5" ry="2.5" style="stroke:#181818;stroke-width:0.5;" width="526.3496" x="1583" y="560.6348"/><ellipse cx="1782.4009" cy="576.6348" fill="#B4A7E5" rx="11" ry="11" style="stroke:#181818;stroke-width:1;"/><path d="M1783.354,573.2754 L1783.354,579.9316 L1785.0728,579.9316 Q1785.6821,579.9316 1785.9478,580.166 Q1786.2134,580.4004 1786.2134,580.791 Q1786.2134,581.166 1785.9478,581.4004 Q1785.6821,581.6348 1785.0728,581.6348 L1779.9321,581.6348 Q1779.3228,581.6348 1779.0571,581.4004 Q1778.7915,581.166 1778.7915,580.7754 Q1778.7915,580.4004 1779.0571,580.166 Q1779.3228,579.9316 1779.9321,579.9316 L1781.6509,579.9316 L1781.6509,573.2754 L1779.9321,573.2754 Q1779.3228,573.2754 1779.0571,573.041 Q1778.7915,572.8066 1778.7915,572.416 Q1778.7915,572.041 1779.0571,571.8066 Q1779.3228,571.5723 1779.9321,571.5723 L1785.0728,571.5723 Q1785.6821,571.5723 1785.9478,571.8066 Q1786.2134,572.041 1786.2134,572.416 Q1786.2134,572.8066 1785.9478,573.041 Q1785.6821,573.2754 1785.0728,573.2754 L1783.354,573.2754 Z " fill="#000000"/><text fill="#000000" font-family="sans-serif" font-size="14" font-style="italic" lengthAdjust="spacing" textLength="119.0479" x="1802.9009" y="582.4316">RegistroRepository</text><line style="stroke:#181818;stroke-width:0.5;" x1="1584" x2="2108.3496" y1="592.6348" y2="592.6348"/><line style="stroke:#181818;stroke-width:0.5;" x1="1584" x2="2108.3496" y1="600.6348" y2="600.6348"/><polygon fill="#4177AF" points="1594,611.4453,1590,617.4453,1598,617.4453" style="stroke:#1963A0;stroke-width:1;"/><text fill="#000000" font-family="sans-serif" font-size="14" lengthAdjust="spacing" textLength="500.3496" x="1603" y="619.7422">Optional&lt;Registro&gt; findTopByEmpleadoIdOrderByFechaDescHoraDesc(Integer)</text><polygon fill="#4177AF" points="1594,630.0664,1590,636.0664,1598,636.0664" style="stroke:#1963A0;stroke-width:1;"/><text fill="#000000" font-family="sans-serif" font-size="14" lengthAdjust="spacing" textLength="461.4258" x="1603" y="638.3633">List&lt;Registro&gt; findAllByEmpleadoIdOrderByFechaDescHoraDesc(Integer)</text><polygon fill="#4177AF" points="1594,648.6875,1590,654.6875,1598,654.6875" style="stroke:#1963A0;stroke-width:1;"/><text fill="#000000" font-family="sans-serif" font-size="14" lengthAdjust="spacing" textLength="343.123" x="1603" y="656.9844">List&lt;Registro&gt; findAllByOrderByFechaDescHoraDesc()</text></g><!--class UsuarioAppRepository--><g class="entity" data-entity="UsuarioAppRepository" data-source-line="70" data-uid="ent0014" id="entity_UsuarioAppRepository"><rect fill="#F1F1F1" height="66.6211" rx="2.5" ry="2.5" style="stroke:#181818;stroke-width:0.5;" width="291.3506" x="2144.5" y="579.1348"/><ellipse cx="2215.8911" cy="595.1348" fill="#B4A7E5" rx="11" ry="11" style="stroke:#181818;stroke-width:1;"/><path d="M2216.8442,591.7754 L2216.8442,598.4316 L2218.563,598.4316 Q2219.1724,598.4316 2219.438,598.666 Q2219.7036,598.9004 2219.7036,599.291 Q2219.7036,599.666 2219.438,599.9004 Q2219.1724,600.1348 2218.563,600.1348 L2213.4224,600.1348 Q2212.813,600.1348 2212.5474,599.9004 Q2212.2817,599.666 2212.2817,599.2754 Q2212.2817,598.9004 2212.5474,598.666 Q2212.813,598.4316 2213.4224,598.4316 L2215.1411,598.4316 L2215.1411,591.7754 L2213.4224,591.7754 Q2212.813,591.7754 2212.5474,591.541 Q2212.2817,591.3066 2212.2817,590.916 Q2212.2817,590.541 2212.5474,590.3066 Q2212.813,590.0723 2213.4224,590.0723 L2218.563,590.0723 Q2219.1724,590.0723 2219.438,590.3066 Q2219.7036,590.541 2219.7036,590.916 Q2219.7036,591.3066 2219.438,591.541 Q2219.1724,591.7754 2218.563,591.7754 L2216.8442,591.7754 Z " fill="#000000"/><text fill="#000000" font-family="sans-serif" font-size="14" font-style="italic" lengthAdjust="spacing" textLength="140.0684" x="2236.3911" y="600.9316">UsuarioAppRepository</text><line style="stroke:#181818;stroke-width:0.5;" x1="2145.5" x2="2434.8506" y1="611.1348" y2="611.1348"/><line style="stroke:#181818;stroke-width:0.5;" x1="2145.5" x2="2434.8506" y1="619.1348" y2="619.1348"/><polygon fill="#4177AF" points="2155.5,629.9453,2151.5,635.9453,2159.5,635.9453" style="stroke:#1963A0;stroke-width:1;"/><text fill="#000000" font-family="sans-serif" font-size="14" lengthAdjust="spacing" textLength="265.3506" x="2164.5" y="638.2422">Optional&lt;UsuarioApp&gt; findByEmail(String)</text></g><!--class JpaRepository--><g class="entity" data-entity="JpaRepository" data-source-line="75" data-uid="ent0015" id="entity_JpaRepository"><rect fill="#F1F1F1" height="48" rx="2.5" ry="2.5" style="stroke:#181818;stroke-width:0.5;" width="121.4893" x="1349.5" y="307.6348"/><ellipse cx="1364.5" cy="323.6348" fill="#ADD1B2" rx="11" ry="11" style="stroke:#181818;stroke-width:1;"/><path d="M1367.2656,319.5098 Q1367.4219,319.291 1367.6094,319.1816 Q1367.7969,319.0723 1368.0156,319.0723 Q1368.3906,319.0723 1368.625,319.3379 Q1368.8594,319.5879 1368.8594,320.1973 L1368.8594,321.6504 Q1368.8594,322.2598 1368.625,322.5254 Q1368.3906,322.791 1368.0156,322.791 Q1367.6719,322.791 1367.4688,322.5879 Q1367.2656,322.4004 1367.1563,321.8848 Q1367.1094,321.5254 1366.9219,321.3379 Q1366.5938,320.9629 1365.9844,320.7441 Q1365.375,320.5254 1364.75,320.5254 Q1363.9844,320.5254 1363.3438,320.8535 Q1362.7188,321.1816 1362.2188,321.9316 Q1361.7344,322.6816 1361.7344,323.7129 L1361.7344,324.8066 Q1361.7344,326.041 1362.625,326.8691 Q1363.5156,327.6816 1365.1094,327.6816 Q1366.0469,327.6816 1366.7031,327.4316 Q1367.0938,327.2754 1367.5156,326.8379 Q1367.7813,326.5723 1367.9219,326.4941 Q1368.0781,326.416 1368.2813,326.416 Q1368.6094,326.416 1368.8594,326.6816 Q1369.125,326.9316 1369.125,327.2754 Q1369.125,327.6191 1368.7813,328.0254 Q1368.2813,328.6035 1367.4844,328.9316 Q1366.4063,329.3848 1365.1094,329.3848 Q1363.5938,329.3848 1362.3906,328.7598 Q1361.4063,328.2598 1360.7188,327.1973 Q1360.0313,326.1191 1360.0313,324.8379 L1360.0313,323.6816 Q1360.0313,322.3535 1360.6406,321.2129 Q1361.2656,320.0566 1362.3594,319.4473 Q1363.4531,318.8223 1364.6875,318.8223 Q1365.4219,318.8223 1366.0625,318.9941 Q1366.7188,319.1504 1367.2656,319.5098 Z " fill="#000000"/><text fill="#000000" font-family="sans-serif" font-size="14" lengthAdjust="spacing" textLength="89.4893" x="1378.5" y="329.4316">JpaRepository</text><line style="stroke:#181818;stroke-width:0.5;" x1="1350.5" x2="1469.9893" y1="339.6348" y2="339.6348"/><line style="stroke:#181818;stroke-width:0.5;" x1="1350.5" x2="1469.9893" y1="347.6348" y2="347.6348"/></g><!--reverse link JpaRepository to TarjetaRepository--><g class="link" data-entity-1="JpaRepository" data-entity-2="TarjetaRepository" data-source-line="75" data-uid="lnk21" id="link_JpaRepository_TarjetaRepository"><path codeLine="75" d="M1352.1255,364.3563 C1266.2655,411.4163 1085.62,510.4348 976.9,570.0348" fill="none" id="JpaRepository-backto-TarjetaRepository" style="stroke:#181818;stroke-width:1;"/><polygon fill="none" points="1367.91,355.7048,1349.2416,359.0948,1355.0093,369.6178,1367.91,355.7048" style="stroke:#181818;stroke-width:1;"/></g><!--reverse link JpaRepository to EmpleadoRepository--><g class="link" data-entity-1="JpaRepository" data-entity-2="EmpleadoRepository" data-source-line="76" data-uid="lnk22" id="link_JpaRepository_EmpleadoRepository"><path codeLine="76" d="M1376.6627,369.2553 C1328.7327,421.9053 1224.68,536.1948 1176.98,588.5948" fill="none" id="JpaRepository-backto-EmpleadoRepository" style="stroke:#181818;stroke-width:1;"/><polygon fill="none" points="1388.78,355.9448,1372.2259,365.2162,1381.0996,373.2944,1388.78,355.9448" style="stroke:#181818;stroke-width:1;"/></g><!--reverse link JpaRepository to RolRepository--><g class="link" data-entity-1="JpaRepository" data-entity-2="RolRepository" data-source-line="77" data-uid="lnk23" id="link_JpaRepository_RolRepository"><path codeLine="77" d="M1410,373.9448 C1410,423.5748 1410,521.8348 1410,578.8848" fill="none" id="JpaRepository-backto-RolRepository" style="stroke:#181818;stroke-width:1;"/><polygon fill="none" points="1410,355.9448,1404,373.9448,1416,373.9448,1410,355.9448" style="stroke:#181818;stroke-width:1;"/></g><!--reverse link JpaRepository to RegistroRepository--><g class="link" data-entity-1="JpaRepository" data-entity-2="RegistroRepository" data-source-line="78" data-uid="lnk24" id="link_JpaRepository_RegistroRepository"><path codeLine="78" d="M1461.2118,365.4063 C1530.9918,410.0563 1670.84,499.5448 1766.08,560.4948" fill="none" id="JpaRepository-backto-RegistroRepository" style="stroke:#181818;stroke-width:1;"/><polygon fill="none" points="1446.05,355.7048,1457.9779,370.4602,1464.4456,360.3524,1446.05,355.7048" style="stroke:#181818;stroke-width:1;"/></g><!--reverse link JpaRepository to UsuarioAppRepository--><g class="link" data-entity-1="JpaRepository" data-entity-2="UsuarioAppRepository" data-source-line="79" data-uid="lnk25" id="link_JpaRepository_UsuarioAppRepository"><path codeLine="79" d="M1488.2234,349.5701 C1613.2334,377.2801 1890.09,443.0148 2127,532.6348 C2161.71,545.7648 2199.05,563.5748 2229.23,578.9648" fill="none" id="JpaRepository-backto-UsuarioAppRepository" style="stroke:#181818;stroke-width:1;"/><polygon fill="none" points="1470.65,345.6748,1486.925,355.428,1489.5219,343.7123,1470.65,345.6748" style="stroke:#181818;stroke-width:1;"/></g><!--link Empleado to Tarjeta--><g class="link" data-entity-1="Empleado" data-entity-2="Tarjeta" data-source-line="83" data-uid="lnk26" id="link_Empleado_Tarjeta"><path codeLine="83" d="M548.54,430.2148 C555.52,466.9848 563.32,508.0448 569.73,541.7848" fill="none" id="Empleado-Tarjeta" style="stroke:#181818;stroke-width:1;"/><text fill="#000000" font-family="sans-serif" font-size="13" lengthAdjust="spacing" textLength="28.1899" x="562" y="498.6631">tiene</text><text fill="#000000" font-family="sans-serif" font-size="13" lengthAdjust="spacing" textLength="7.23" x="542.6413" y="452.1186">1</text><text fill="#000000" font-family="sans-serif" font-size="13" lengthAdjust="spacing" textLength="19.5127" x="548.3856" y="530.6397">0..*</text></g><!--link Empleado to Registro--><g class="link" data-entity-1="Empleado" data-entity-2="Registro" data-source-line="84" data-uid="lnk27" id="link_Empleado_Registro"><path codeLine="84" d="M466.35,430.2148 C442.36,466.9848 415.58,508.0448 393.57,541.7848" fill="none" id="Empleado-Registro" style="stroke:#181818;stroke-width:1;"/><text fill="#000000" font-family="sans-serif" font-size="13" lengthAdjust="spacing" textLength="40.479" x="429" y="498.6631">genera</text><text fill="#000000" font-family="sans-serif" font-size="13" lengthAdjust="spacing" textLength="7.23" x="461.9296" y="452.1186">1</text><text fill="#000000" font-family="sans-serif" font-size="13" lengthAdjust="spacing" textLength="19.5127" x="378.2945" y="530.6397">0..*</text></g><!--link Empleado to UsuarioApp--><g class="link" data-entity-1="Empleado" data-entity-2="UsuarioApp" data-source-line="85" data-uid="lnk28" id="link_Empleado_UsuarioApp"><path codeLine="85" d="M461.92,430.4048 C445.27,448.0548 426.1,464.3948 405,475.6348 C380.09,488.9048 368.82,474.8348 342,483.6348 C305.52,495.6148 268.66,514.7348 236.09,534.5748" fill="none" id="Empleado-UsuarioApp" style="stroke:#181818;stroke-width:1;"/><text fill="#000000" font-family="sans-serif" font-size="13" lengthAdjust="spacing" textLength="70.8335" x="343" y="498.6631">tiene cuenta</text><text fill="#000000" font-family="sans-serif" font-size="13" lengthAdjust="spacing" textLength="7.23" x="449.884" y="451.9868">1</text><text fill="#000000" font-family="sans-serif" font-size="13" lengthAdjust="spacing" textLength="7.23" x="244.2083" y="525.2671">1</text></g><!--link Rol to UsuarioApp--><g class="link" data-entity-1="Rol" data-entity-2="UsuarioApp" data-source-line="86" data-uid="lnk29" id="link_Rol_UsuarioApp"><path codeLine="86" d="M131.45,383.8048 C131,425.4148 130.36,484.8348 129.85,532.5648" fill="none" id="Rol-UsuarioApp" style="stroke:#181818;stroke-width:1;"/><text fill="#000000" font-family="sans-serif" font-size="13" lengthAdjust="spacing" textLength="52.7681" x="131" y="498.6631">asignado</text><text fill="#000000" font-family="sans-serif" font-size="13" lengthAdjust="spacing" textLength="7.23" x="123.9455" y="405.6338">1</text><text fill="#000000" font-family="sans-serif" font-size="13" lengthAdjust="spacing" textLength="19.5127" x="110.0616" y="521.4541">0..*</text></g><!--SRC=[hLRDJXin4BxdAQQv9BImBUeD8QH0g0251eLmgdeOrfEDmR6tjjCgelHT-Wnz15witit-s5dIWD9STcD__lpD-9lnTjxOASq814-cDj6uwBGijuBWI_zqt1iCUlqXxB__-1Kk5IEXW16SIiiPCZAxCA9K6MwLvih00lhZeMcrKeplCI5eLy1irHLfmuqb6NDimqCBt2yMQ0oSpb91o5GncFtsu5nQIaW3PzxWjTLS9Y3Lx5PJSnnJ4e8pPRofMwKSkGICBV-kl8c1Yb7qqTAOk_0d54_nH1F6N4aVvIGVZb7VaSKZiCiNimeOKU8UMXs1Bjvyo8sPeqjGBqrXNhtcyuyjBmt5BY_EmZmOh998nSk_G-rbwMW4syJroM083JINWMyM_I9zoprNPt8rKwNzYJ5FLRMvTNzyRIJdin1HotkNJLkD3FqXWyuts8pFExgj8YoEZ6R8HNDuYcPweZ9LXgGVvKW9q4gymhNXwRZbhwkfKRXPvkqw1KUbVKtjtqUlt8DcqBrESrwd5U7YghTJrZnt8lG4OoeDNorRU69_mJ2rBYWKTVLDk6J7YnlEkalDEnuwhDCbiZoGSzOj8j_nSrGBAO6raXM0IyicbGvIxlkvJ6MWix5hQSwDp5LpoUZ7AlKZ6sf6-dZngQZL-CoLIVOC8_Po5BBrXFZVR6ivrgIXzjUcHFXEB4_OrTDpMUx06UdygickdXKhGlVcSW1axDDloL3lEk-xllrjpjqIO5nJ7FEdFt99g7GIcNpzHEECVYXz7p575Dsb6EbASNIH-aO-_Bctr_JtjeHhVBe5Os3ihSaQXjwMyJblP2sdu_OIUTDRVbkSe6PSvZsSvUtT-qXfLNsvlTy6Hzh-44LlszLrU-2k3vAq3bPT8GUGE9YxX1f0z_3kYO8FuhaJWgsi1uUC0HODJsHsL_m5]--></g></svg>